# xmcd CD database file
#
# Track frame offsets:
#	150
#	13487
#	26390
#	38290
#	50075
#	64010
#	77938
#	83651
#	95458
#	105278
#	119329
#	127959
#	136389
#	147365
#	158058
#	166168
#	177136
#	189634
#	203736
#	216624
#
# Disc length: 3007 seconds
#
# Revision: 1
# Processed by: cddbd v1.4PL0 Copyright (c) Steve Scherf et al.
# Submitted via: CDex 1.50Beta5
#
DISCID=0e0bbd14
DTITLE=Al Jolson - 20 Golden Memories
DYEAR=2000
DGENRE=Jazz
TTITLE0=My Mammy
TTITLE1=Rock-A-Bye Your Baby With A Dixie Melody
TTITLE2=You Made Me Love You
TTITLE3=When The Red Red Robin Comes A Bob Bob Bobbin' Along
TTITLE4=April Showers
TTITLE5=Anniversary Song
TTITLE6=Oh You Beautiful Doll
TTITLE7=Give My Regards To Broadway
TTITLE8=Toot, Toot, Tootsie
TTITLE9=Ol' Man River
TTITLE10=Swanee
TTITLE11=I'm Sitting On Top Of The World
TTITLE12=California Here I Come
TTITLE13=There's A Rainbow 'Round My Shoulder
TTITLE14=For Me And My Gal
TTITLE15=Always
TTITLE16=I Only Have Eyes Fot You
TTITLE17=Sonny Boy
TTITLE18=After You've Gone
TTITLE19=Ma Blushin' Rosie
EXTD=YEAR: 2000
EXTT0=
EXTT1=
EXTT2=
EXTT3=
EXTT4=
EXTT5=
EXTT6=
EXTT7=
EXTT8=
EXTT9=
EXTT10=
EXTT11=
EXTT12=
EXTT13=
EXTT14=
EXTT15=
EXTT16=
EXTT17=
EXTT18=
EXTT19=
PLAYORDER=
